<?xml version="1.0" standalone="no"?>
<!DOCTYPE svg PUBLIC "-//W3C//DTD SVG 20010904//EN"
 "http://www.w3.org/TR/2001/REC-SVG-20010904/DTD/svg10.dtd">
<svg version="1.0" xmlns="http://www.w3.org/2000/svg"
 width="150.000000pt" height="55.000000pt" viewBox="0 0 150.000000 55.000000"
 preserveAspectRatio="xMidYMid meet">
<metadata>
Created by potrace 1.10, written by Peter Selinger 2001-2011
</metadata>
<g transform="translate(0.000000,55.000000) scale(0.100000,-0.100000)"
fill="#000000" stroke="none">
<path d="M856 414 c-23 -23 -23 -255 0 -278 13 -14 55 -16 303 -16 210 0 290
3 299 12 8 8 12 55 12 145 0 121 -2 133 -19 143 -12 6 -126 10 -300 10 -241 0
-282 -2 -295 -16z m399 -139 l0 -135 -197 0 -198 0 0 135 0 135 198 0 197 0 0
-135z m195 0 l0 -135 -90 0 -90 0 0 135 0 135 90 0 90 0 0 -135z"/>
<path d="M1080 331 c0 -67 11 -81 63 -81 l40 0 -6 -45 c-6 -43 -5 -45 18 -45
l25 0 0 110 0 110 -25 0 c-24 0 -24 -2 -18 -46 l6 -46 -29 4 c-26 3 -29 7 -32
44 -2 32 -8 43 -23 47 -17 5 -19 0 -19 -52z"/>
<path d="M890 360 c0 -18 7 -20 56 -20 54 0 55 0 52 -27 -3 -25 -8 -28 -43
-31 -49 -4 -65 -23 -65 -79 l0 -43 75 0 c68 0 75 2 75 20 0 18 -7 20 -55 20
-48 0 -55 2 -55 20 0 16 7 20 33 20 49 0 77 24 77 66 0 63 -12 74 -85 74 -58
0 -65 -2 -65 -20z"/>
<path d="M1300 364 c0 -21 5 -24 35 -24 19 0 35 -1 35 -3 0 -2 -13 -40 -30
-85 -16 -46 -30 -85 -30 -87 0 -3 9 -5 19 -5 15 0 27 22 56 100 20 55 35 106
33 112 -2 6 -30 12 -61 13 -54 3 -57 2 -57 -21z"/>
<path d="M125 373 c-9 -21 -34 -80 -57 -131 -22 -51 -38 -96 -34 -99 3 -4 22
1 41 10 45 22 105 22 150 0 19 -9 38 -14 41 -10 9 8 -100 260 -114 265 -6 2
-18 -14 -27 -35z m54 -105 c12 -28 19 -53 17 -55 -2 -3 -14 0 -25 7 -15 8 -27
8 -42 0 -11 -7 -23 -10 -25 -7 -5 5 39 106 47 107 4 0 16 -23 28 -52z"/>
<path d="M402 374 l3 -36 -44 -2 c-56 -3 -71 -23 -71 -96 0 -83 16 -100 96
-100 l64 0 0 135 0 135 -26 0 c-23 0 -25 -3 -22 -36z m-2 -140 l0 -55 -32 3
c-30 3 -33 6 -36 42 -5 53 3 66 38 66 30 0 30 0 30 -56z"/>
<path d="M588 373 c-3 -35 -5 -38 -31 -35 -15 2 -39 -4 -53 -12 -22 -15 -24
-23 -24 -91 0 -88 7 -95 94 -95 l56 0 0 135 c0 127 -1 135 -19 135 -16 0 -20
-8 -23 -37z m2 -139 l0 -55 -32 3 c-32 3 -33 4 -36 56 l-3 52 35 0 36 0 0 -56z"/>
<path d="M670 316 c0 -23 4 -25 53 -28 38 -2 52 -7 52 -18 0 -11 -9 -14 -37
-12 -55 5 -78 -11 -78 -56 0 -53 14 -62 90 -62 l65 0 -3 83 c-4 100 -18 117
-93 117 -45 0 -49 -2 -49 -24z m110 -117 c0 -16 -7 -19 -40 -19 -33 0 -40 3
-40 19 0 15 8 21 33 23 41 4 47 1 47 -23z"/>
</g>
</svg>
